<svg xmlns="http://www.w3.org/2000/svg"  viewBox="0 0 64 64" width="64px" height="64px" baseProfile="basic"><linearGradient id="Cszmk2LKDUd8Zjl0X-76oa" x1="33.788" x2="33.788" y1="14.036" y2="49.86" gradientUnits="userSpaceOnUse"><stop offset="0" stop-color="#6dc7ff"/><stop offset=".492" stop-color="#aab9ff"/><stop offset="1" stop-color="#e6abff"/></linearGradient><path fill="url(#Cszmk2LKDUd8Zjl0X-76oa)" d="M58,32c-1-1-1.92-0.99-2-1h-5l-1-13c-0.03-0.23-0.83-0.83-1-1l-5-5l1-1 c0.22-0.27,0.11-0.67,0-1c-0.11-0.33-1-1-1-1l-2-4c-0.06-0.35-2,2-2,2l-1-5c-0.1-0.33-1.75-0.24-2,0l-2,3l-2-2 c-0.17-0.36-0.85,0.63-1,1l-1,4c-0.11,0.28-0.15,1.74,0,2v1c0,0-10.41,1.67-12.3,2.46c-0.55,0.24-1.1,0.47-1.68,0.62 C16.49,14.22,16.45,15.2,16,15C5.68,21.79,8.96,31.84,9,32l3,8c-4.07,2.63-4.16,4.45-2,9c0.81,1.71,1.55,2.57,3,3 c1.48,0.44,2.15,0.95,3,0.61L18,54c0.14,0.16,1.79,0.95,2,1c0.25,0.05,4.45,1,10,1c1.32,0,13.82-4.91,14-5 c0.09-0.05-0.07,0.07,0,0c0.04-0.04,4.34-3.56,7-6c6.13,0.48,6.59-1.76,7-3c0-2.82,0.55-1.13,1-5C59.24,34.9,59.108,33.108,58,32z M22,49c-1.87,0.68-4.6-0.06-5.26-1.93c-0.42-1.11-1.2-3.65-1.58-4.71c-0.68-1.87-0.13-3.51,1.59-4.5C20,36,22,38,23,41 c0.38,1.13,0.62,1.94,1,3C24.68,45.87,23.87,48.34,22,49z M37.78,46.37c-2.23,0.67-5.18-0.98-6.03-3.85 C30.9,39.66,30.76,35.2,35,33c3.32-1.72,8.04-2.26,9.07,4.94C44.96,44.25,40.02,45.71,37.78,46.37z"/><g><linearGradient id="Cszmk2LKDUd8Zjl0X-76ob" x1="52.76" x2="52.76" y1="-2.138" y2="56.348" gradientUnits="userSpaceOnUse"><stop offset="0" stop-color="#1a6dff"/><stop offset="1" stop-color="#c822ff"/></linearGradient><path fill="url(#Cszmk2LKDUd8Zjl0X-76ob)" d="M51.855,34.838 C51.364,34.897,51,35.334,51,35.829V40c0,0.552,0.448,1,1,1h1.121c0.503,0,0.927-0.373,0.992-0.872l0.387-3.003 C54.5,37.125,54.925,34.468,51.855,34.838z"/><linearGradient id="Cszmk2LKDUd8Zjl0X-76oc" x1="20.499" x2="20.499" y1="-2.138" y2="56.348" gradientUnits="userSpaceOnUse"><stop offset="0" stop-color="#1a6dff"/><stop offset="1" stop-color="#c822ff"/></linearGradient><path fill="url(#Cszmk2LKDUd8Zjl0X-76oc)" d="M21.879,41.322 c-0.37-1.04-1.519-1.58-2.559-1.2c-1.04,0.37-1.58,1.52-1.2,2.559c0.21,0.59,0.77,2.379,1,2.999c0.37,1.04,1.519,1.579,2.559,1.2 c1.04-0.37,1.58-1.519,1.2-2.559C22.668,43.731,22.109,41.942,21.879,41.322z"/><linearGradient id="Cszmk2LKDUd8Zjl0X-76od" x1="38.857" x2="38.857" y1="-2.138" y2="56.348" gradientUnits="userSpaceOnUse"><stop offset="0" stop-color="#1a6dff"/><stop offset="1" stop-color="#c822ff"/></linearGradient><path fill="url(#Cszmk2LKDUd8Zjl0X-76od)" d="M40.433,36.51 c-0.423-1.188-1.737-1.805-2.925-1.371c-1.188,0.423-1.805,1.737-1.371,2.925c0.24,0.674,0.88,2.719,1.143,3.427 c0.423,1.188,1.737,1.805,2.925,1.371c1.188-0.423,1.805-1.737,1.371-2.925C41.336,39.264,40.696,37.218,40.433,36.51z"/><linearGradient id="Cszmk2LKDUd8Zjl0X-76oe" x1="13.022" x2="13.022" y1="-2.138" y2="56.348" gradientUnits="userSpaceOnUse"><stop offset="0" stop-color="#1a6dff"/><stop offset="1" stop-color="#c822ff"/></linearGradient><path fill="url(#Cszmk2LKDUd8Zjl0X-76oe)" d="M14.118,44.414 c-0.306-0.836-1.238-1.262-2.074-0.948c-0.836,0.306-1.262,1.238-0.948,2.073c0.174,0.474,0.639,1.913,0.829,2.412 c0.306,0.836,1.238,1.262,2.074,0.948c0.836-0.306,1.262-1.238,0.948-2.073C14.774,46.351,14.309,44.912,14.118,44.414z"/><linearGradient id="Cszmk2LKDUd8Zjl0X-76of" x1="33.777" x2="33.777" y1="-2.138" y2="56.348" gradientUnits="userSpaceOnUse"><stop offset="0" stop-color="#1a6dff"/><stop offset="1" stop-color="#c822ff"/></linearGradient><path fill="url(#Cszmk2LKDUd8Zjl0X-76of)" d="M58.704,31.147 c-1.313-1.438-2.991-1.522-3.176-1.527l-3.383-0.095l-1.282-11.259c-0.026-0.231-0.133-0.446-0.3-0.608l-5.827-5.611l1.28-1.525 c0.223-0.266,0.292-0.629,0.183-0.958c-0.109-0.33-0.382-0.579-0.72-0.658L44.002,8.56l-0.515-3.218 c-0.056-0.35-0.293-0.645-0.624-0.773c-0.331-0.13-0.704-0.074-0.983,0.146l-0.593,0.468l-1.33-4.468 c-0.1-0.336-0.368-0.595-0.706-0.683c-0.339-0.088-0.699,0.008-0.95,0.251l-3.754,3.651l-0.777-1.618 c-0.172-0.357-0.551-0.628-0.934-0.565c-0.396,0.013-0.747,0.258-0.895,0.625l-2.37,5.87c-0.113,0.279-0.094,0.595,0.052,0.858 l0.547,0.988l-8.624,1.217c-0.43,0.104-0.861,0.209-1.291,0.313C4.318,17.388,8.373,32.859,8.439,33.09l2.269,6.279 c-1.305,0.53-2.237,1.375-2.778,2.52c-0.919,1.944-0.611,4.564,0.916,7.789c1.874,3.955,5.58,4.088,7.796,3.491l0.392,0.504 c0.767,0.987,1.863,1.647,3.085,1.858c1.24,0.214,3.2,0.504,5.499,0.666c1.147,0.082,2.266,0.124,3.36,0.124 c1.451,0,2.858-0.073,4.226-0.223c1.691-0.354,3.406-0.803,5.098-1.335c3.688-1.173,5.941-2.326,6.016-2.365 c0.21-0.103,4.889-2.421,6.694-6.092c7.014,0.419,8.076-4.795,8.073-4.795c0.037-0.137,0.908-3.37,1.033-5.328 C60.256,34.02,59.78,32.325,58.704,31.147z M20.46,53.561c-0.585-0.101-1.117-0.382-1.545-0.792l5.305-0.663 c0.103,0.534,0.283,1.213,0.801,2.039C23.126,53.983,21.52,53.743,20.46,53.561z M37.553,49.105C37.214,49.275,37,49.621,37,50 v3.059c-1.397,0.418-2.797,0.789-4.106,1.067c-1.616,0.173-3.353,0.23-5.181,0.175c-0.002-0.002-0.003-0.006-0.005-0.008 c-1.299-1.299-1.441-2.1-1.566-2.807c-0.048-0.271-0.098-0.552-0.204-0.836c-0.162-0.434-0.599-0.691-1.061-0.643l-8,1 c-0.041,0.005-0.073,0.028-0.112,0.038c-0.044,0.01-0.089,0.008-0.132,0.025c-0.424,0.165-4.197,1.511-5.979-2.248 c-1.241-2.62-1.558-4.722-0.916-6.079c0.414-0.875,1.233-1.455,2.505-1.773c0.024-0.006,0.042-0.024,0.065-0.032 c0.075-0.024,0.14-0.06,0.206-0.1c0.048-0.03,0.096-0.056,0.138-0.093c0.061-0.053,0.107-0.116,0.153-0.183 c0.023-0.033,0.058-0.056,0.077-0.092c0.007-0.012,0.005-0.027,0.011-0.039c0.034-0.07,0.048-0.146,0.065-0.224 c0.013-0.058,0.032-0.112,0.034-0.17C12.993,40.024,13,40.013,13,40c0-0.65-0.011-1.284-0.021-1.898 c-0.038-2.261-0.068-4.167,0.438-5.535l1.274,1.622c0.129,0.164,0.313,0.277,0.518,0.318l3.414,0.683 c0.388,0.078,0.78-0.114,0.957-0.468l0.35-0.7c0.141-0.282,0.12-0.618-0.055-0.88l-1.271-1.907 c-0.129-0.194-0.33-0.328-0.558-0.374l-2.259-0.452C16.63,30.138,17.69,30,19,30c4.048,0,6.44,7.363,7.02,10.2 c0.109,0.534,0.627,0.876,1.162,0.783c0.536-0.1,0.894-0.61,0.804-1.147c-0.479-2.878-0.628-6.892,1.389-9.678 c0.669-0.924,1.554-1.653,2.632-2.198l0.558,2.149c0.157,0.603,0.702,0.977,1.14,0.78l4.767-1.923 c0.371-0.167,0.52-0.687,0.341-1.186l-0.391-1.086c3.017-0.047,5.264,0.645,6.707,2.071c2.043,2.022,2.659,5.65,1.882,11.093 c-0.791,5.531-5.735,7.639-8.391,8.771C38.191,48.812,37.828,48.968,37.553,49.105z M58.122,36.057 c-0.112,1.757-0.958,4.9-0.984,5.004c-0.032,0.156-0.843,3.827-6.65,3.195c-0.459-0.043-0.888,0.217-1.047,0.648 c-1.222,3.322-5.954,5.674-6.02,5.707c-0.019,0.009-1.68,0.857-4.422,1.812v-1.78c0.126-0.055,0.261-0.112,0.404-0.173 c2.803-1.195,8.637-3.683,9.586-10.328c0.874-6.113,0.07-10.299-2.455-12.798c-2.397-2.371-6.332-3.156-11.687-2.332 c-3.149,0.484-5.536,1.821-7.093,3.974c-1.028,1.42-1.594,3.062-1.865,4.73C24.47,30.827,22.25,28,19,28 c-2.976,0-4.964,0.612-6.257,1.928c-1.135,1.155-1.558,2.688-1.707,4.469l-0.692-1.912c-0.158-0.574-3.696-14.094,11.009-19.128 L31.89,11.87c0.326-0.046,0.608-0.249,0.755-0.544s0.139-0.643-0.02-0.931l-1.02-1.843l1.344-3.329l0.399,0.83 c0.14,0.29,0.41,0.495,0.727,0.551c0.316,0.059,0.641-0.043,0.872-0.268l3.565-3.468l1.279,4.296 c0.095,0.317,0.34,0.568,0.656,0.668c0.316,0.099,0.661,0.036,0.921-0.168l0.412-0.325l0.352,2.198 c0.064,0.4,0.364,0.723,0.759,0.815l0.548,0.129l-0.835,0.995c-0.338,0.402-0.306,0.998,0.072,1.363l6.241,6.01l1.339,11.763 c0.056,0.494,0.468,0.872,0.965,0.887l4.241,0.119c0.042,0.002,1.035,0.06,1.785,0.899C57.929,33.281,58.223,34.472,58.122,36.057 z"/><linearGradient id="Cszmk2LKDUd8Zjl0X-76og" x1="32" x2="32" y1="-2.138" y2="56.348" gradientUnits="userSpaceOnUse"><stop offset="0" stop-color="#1a6dff"/><stop offset="1" stop-color="#c822ff"/></linearGradient><path fill="url(#Cszmk2LKDUd8Zjl0X-76og)" d="M33.263,47.324 c-0.937,1.021-2.809,1.569-3.452,1.693c-0.542,0.105-0.896,0.629-0.792,1.171c0.092,0.479,0.51,0.812,0.98,0.812 c0.062,0,0.125-0.006,0.188-0.018c0.121-0.023,2.969-0.582,4.55-2.307c0.373-0.407,0.346-1.04-0.062-1.413 C34.269,46.89,33.635,46.918,33.263,47.324z"/></g></svg>